# xmcd
#
# Track frame offsets:
#	150
#	18658
#	31768
#	47448
#	63917
#	80728
#	98213
#	106540
#	117688
#	127311
#	140400
#	154369
#	169627
#
# Disc length: 2464 seconds
#
# Revision: 1
# Processed by: cddbd v1.5.2PL0 Copyright (c) Steve Scherf et al.
# Submitted via: audiograbber 1.83.01
#
DISCID=ad099e0d
DTITLE=Water Tower Bucket Boys - Sole Kitchen
DYEAR=2010
DGENRE=Bluegrass
TTITLE0=Crooked Road
TTITLE1=Fromage
TTITLE2=Telegraph
TTITLE3=Bread
TTITLE4=Tequila With Lime
TTITLE5=Since You've Been Gone
TTITLE6=London Breakdown
TTITLE7=Numb
TTITLE8=Blackbird Pickin' At A Squirrel
TTITLE9=Sunday Night Roast
TTITLE10=Goatheads
TTITLE11=I'm Not A Stranger
TTITLE12=Heaven
EXTD=
EXTT0=
EXTT1=
EXTT2=
EXTT3=
EXTT4=
EXTT5=
EXTT6=
EXTT7=
EXTT8=
EXTT9=
EXTT10=
EXTT11=
EXTT12=
PLAYORDER=
